<svg xmlns="http://www.w3.org/2000/svg" viewBox="0 0 64 64">
  <rect width="64" height="64" rx="14" fill="#1a1a2e"/>
  <rect x="7" y="7" width="50" height="50" rx="12" fill="#0f3460"/>
  <path d="M18 42V20h10.5c6.5 0 10.5 3.4 10.5 9 0 5.8-4.2 9.3-11 9.3h-5.6V42H18z" fill="#ffffff"/>
  <path d="M23.1 34.4h5c3.8 0 5.8-1.9 5.8-5.2 0-3.2-1.9-5-5.6-5h-5.2v10.2z" fill="#7ba0e0"/>
  <circle cx="48" cy="46" r="8" fill="#537ec5"/>
  <path d="M45.2 42.8h2.2l3.7 5h-2.3l-.8-1.2h-3.4l-.7 1.2h-2.2l3.5-5zm.2 2.4l-.9 1.5h1.8l-.9-1.5z" fill="#ffffff"/>
</svg>
